<?xml version="1.0" encoding="UTF-8"?>
<svg width="100" height="60" viewBox="0 0 1955 658" version="1.1" xmlns="http://www.w3.org/2000/svg" xmlns:xlink="http://www.w3.org/1999/xlink">
    <title>Artboard Copy 2</title>
    <g id="Artboard-Copy-2" stroke="none" stroke-width="1" fill="none" fill-rule="evenodd">
        <g id="Group" transform="translate(-132.000000, -171.630101)">
            <path d="M925.851,283.870101 L926.888818,283.873729 C961.036429,284.1132 985.24599,296.206491 999.5175,320.153601 C1013.93317,344.342601 1014.05533,373.540434 999.884,407.747101 L999.884,407.747101 L934.647,563.143101 L934.260831,564.043627 C921.608098,593.370408 905.244322,613.838566 885.1695,625.448101 C864.889833,637.176101 834.959,643.040101 795.377,643.040101 L795.377,643.040101 L851.818,791.106101 L851.990328,791.514529 C857.558636,804.92491 851.39286,811.630101 833.493,811.630101 L833.493,811.630101 L711.815,811.630101 L711.294271,811.627558 C699.382871,811.510577 691.982114,807.357758 689.092,799.169101 L689.092,799.169101 L631.185,643.040101 L623.855,643.040101 L623.476479,643.038195 C611.07236,642.912412 607.2892,636.560381 612.127,623.982101 L612.127,623.982101 L650.243,530.158101 L650.461638,529.672451 C656.330702,516.802218 665.298156,510.367101 677.364,510.367101 L677.364,510.367101 L796.843,510.367101 L797.17391,510.363315 C801.884394,510.254778 805.194758,507.812707 807.105,503.037101 L807.105,503.037101 L836.425,429.737101 L836.503428,429.468133 C837.835698,424.760778 836.343556,422.407101 832.027,422.407101 L832.027,422.407101 L667.955374,422.407101 L667.990051,422.320805 L506.748374,421.191101 L554.22,303.661101 L554.438638,303.175451 C560.307702,290.305218 569.275156,283.870101 581.341,283.870101 L581.341,283.870101 L925.851,283.870101 Z M1053.393,811.630101 C1067.07567,811.630101 1076.36033,805.277434 1081.247,792.572101 L1081.247,792.572101 L1226.381,429.004101 C1228.33567,424.606101 1231.75633,422.407101 1236.643,422.407101 L1236.643,422.407101 L1482.198,422.407101 C1494.90333,422.407101 1503.69933,416.054434 1508.586,403.349101 L1508.586,403.349101 L1548.901,303.661101 C1553.78767,290.955768 1549.87833,284.603101 1537.173,284.603101 L1537.173,284.603101 L1150.882,284.603101 C1138.17667,284.603101 1129.38067,290.955768 1124.494,303.661101 L1124.494,303.661101 L927.317,792.572101 C921.453,805.277434 925.118,811.630101 938.312,811.630101 L938.312,811.630101 L1053.393,811.630101 Z M1372.981,607.123101 C1385.68633,607.123101 1394.48233,600.770434 1399.369,588.065101 L1399.369,588.065101 L1431.621,508.168101 C1436.99633,495.462768 1433.33133,489.110101 1420.626,489.110101 L1420.626,489.110101 L1256.434,489.110101 C1243.72867,489.110101 1234.68833,495.462768 1229.313,508.168101 L1229.313,508.168101 L1197.061,588.065101 C1192.17433,600.770434 1196.08367,607.123101 1208.789,607.123101 L1208.789,607.123101 L1372.981,607.123101 Z M1541.571,811.630101 C1555.25367,811.630101 1564.53833,805.277434 1569.425,792.572101 L1569.425,792.572101 L1714.559,429.004101 C1716.51367,424.606101 1719.93433,422.407101 1724.821,422.407101 L1724.821,422.407101 L1884.615,422.407101 C1889.50167,422.407101 1890.96767,424.606101 1889.013,429.004101 L1889.013,429.004101 L1850.164,525.760101 C1848.20933,530.158101 1844.78867,532.357101 1839.902,532.357101 L1839.902,532.357101 L1727.02,532.357101 C1718.71267,532.357101 1712.97083,533.456601 1709.7945,535.655601 C1706.61817,537.854601 1703.31967,543.107768 1699.899,551.415101 L1699.899,551.415101 L1662.516,645.239101 C1656.652,658.433101 1660.317,665.030101 1673.511,665.030101 L1673.511,665.030101 L1824.509,665.030101 C1870.44367,665.030101 1906.2385,655.867601 1931.8935,637.542601 C1957.5485,619.217601 1979.66067,587.087768 1998.23,541.153101 L1998.23,541.153101 L2051.739,408.480101 C2065.91033,373.784768 2065.78817,344.464768 2051.3725,320.520101 C2036.95683,296.575434 2012.40133,284.603101 1977.706,284.603101 L1977.706,284.603101 L1639.06,284.603101 C1626.35467,284.603101 1617.55867,290.955768 1612.672,303.661101 L1612.672,303.661101 L1415.495,792.572101 C1409.631,805.277434 1413.296,811.630101 1426.49,811.630101 L1426.49,811.630101 L1541.571,811.630101 Z" id="RFP" fill="#FFFFFF" fill-rule="nonzero"></path>
            <polygon id="Path-2" fill="#06B6D4" points="367.124828 183 558.89038 183 393.317269 469.76953 574.469784 469.76953 367.124828 812 165.857973 812 310.679777 582.27188 132.469784 582.27188"></polygon>
        </g>
    </g>
</svg>