<?xml version="1.0" standalone="no"?>
<!DOCTYPE svg PUBLIC "-//W3C//DTD SVG 20010904//EN"
 "http://www.w3.org/TR/2001/REC-SVG-20010904/DTD/svg10.dtd">
<svg version="1.0" xmlns="http://www.w3.org/2000/svg"
 width="200.000000pt" height="200.000000pt" viewBox="0 0 200.000000 200.000000"
 preserveAspectRatio="xMidYMid meet">
<metadata>
Created by potrace 1.14, written by Peter Selinger 2001-2017
</metadata>
<g transform="translate(0.000000,200.000000) scale(0.100000,-0.100000)"
fill="#000000" stroke="none">
<path d="M661 1637 c-23 -40 -85 -147 -320 -543 -55 -95 -104 -179 -107 -188
-5 -14 12 -16 165 -16 94 0 171 -2 171 -5 0 -2 -59 -98 -131 -212 -72 -114
-134 -214 -136 -221 -4 -10 35 -12 193 -10 l198 3 91 150 c49 83 139 230 198
327 59 98 107 180 107 183 0 3 -76 5 -170 5 -122 0 -170 3 -170 12 0 6 70 132
155 279 85 147 155 270 155 273 0 3 -84 6 -187 6 l-188 0 -24 -43z"/>
<path d="M982 1393 c-12 -10 -41 -64 -66 -120 l-45 -103 285 0 c156 0 284 -3
284 -7 0 -4 -12 -38 -27 -75 l-26 -68 -117 0 c-136 0 -131 4 -178 -112 -36
-88 -39 -114 -14 -120 11 -4 32 -47 66 -137 29 -80 56 -135 67 -141 19 -11
218 -14 243 -4 23 9 21 20 -29 154 -25 67 -45 122 -45 124 0 2 23 6 51 10 65
9 118 35 146 74 12 16 52 101 90 188 57 134 67 168 68 216 0 51 -3 61 -31 88
-17 17 -48 35 -70 40 -21 5 -172 10 -335 10 -268 0 -299 -2 -317 -17z"/>
</g>
</svg>
